<svg width="158" height="143" viewBox="0 0 158 143" fill="none" xmlns="http://www.w3.org/2000/svg">
<g filter="url(#filter0_d)">
<circle opacity="0.1" cx="86.0427" cy="67.5" r="67.5" fill="url(#paint0_linear)"/>
<path fill-rule="evenodd" clip-rule="evenodd" d="M80.9656 66.5012C69.186 66.5012 59.6368 74.8799 59.6368 85.2155V85.2633C59.6368 95.5989 69.186 103.978 80.9656 103.978H112.419C113.594 103.978 114.747 103.894 115.87 103.734L121.964 108.898C122.13 109.039 122.351 109.117 122.582 109.117C123.072 109.117 123.47 108.768 123.47 108.338L123.471 101.273C129.632 97.9914 133.748 92.0491 133.748 85.2633V85.2155C133.748 74.8799 124.199 66.5012 112.419 66.5012H80.9656Z" fill="#1D4885"/>
<path d="M86.1392 21.6649H41.228C24.4001 21.6649 10.7583 33.6344 10.7583 48.3996C10.7583 63.1648 24.4001 75.1343 41.228 75.1343H86.1392C102.967 75.1343 116.609 63.1648 116.609 48.3996C116.609 33.6344 102.967 21.6649 86.1392 21.6649Z" fill="url(#paint1_linear)"/>
<path fill-rule="evenodd" clip-rule="evenodd" d="M25.4377 67.3577V81.3535C25.4377 81.9688 26.0062 82.4675 26.7073 82.4675C27.0362 82.4675 27.3522 82.3555 27.5889 82.1552L39.3105 72.2316L25.4377 67.3577Z" fill="url(#paint2_linear)"/>
<path d="M43.2912 51.7415C46.0082 51.7415 48.2108 49.8089 48.2108 47.4249C48.2108 45.041 46.0082 43.1084 43.2912 43.1084C40.5742 43.1084 38.3716 45.041 38.3716 47.4249C38.3716 49.8089 40.5742 51.7415 43.2912 51.7415Z" fill="white"/>
<path d="M63.4455 51.7415C66.1625 51.7415 68.3651 49.8089 68.3651 47.4249C68.3651 45.041 66.1625 43.1084 63.4455 43.1084C60.7285 43.1084 58.5259 45.041 58.5259 47.4249C58.5259 49.8089 60.7285 51.7415 63.4455 51.7415Z" fill="white"/>
<path d="M84.0761 51.7415C86.7931 51.7415 88.9957 49.8089 88.9957 47.4249C88.9957 45.041 86.7931 43.1084 84.0761 43.1084C81.3591 43.1084 79.1565 45.041 79.1565 47.4249C79.1565 49.8089 81.3591 51.7415 84.0761 51.7415Z" fill="white"/>
</g>
<defs>
<filter id="filter0_d" x="0.542725" y="0" width="157" height="143" filterUnits="userSpaceOnUse" color-interpolation-filters="sRGB">
<feFlood flood-opacity="0" result="BackgroundImageFix"/>
<feColorMatrix in="SourceAlpha" type="matrix" values="0 0 0 0 0 0 0 0 0 0 0 0 0 0 0 0 0 0 127 0"/>
<feOffset dy="4"/>
<feGaussianBlur stdDeviation="2"/>
<feColorMatrix type="matrix" values="0 0 0 0 0 0 0 0 0 0 0 0 0 0 0 0 0 0 0.25 0"/>
<feBlend mode="normal" in2="BackgroundImageFix" result="effect1_dropShadow"/>
<feBlend mode="normal" in="SourceGraphic" in2="effect1_dropShadow" result="shape"/>
</filter>
<linearGradient id="paint0_linear" x1="180.126" y1="-204.224" x2="78.9492" y2="149.495" gradientUnits="userSpaceOnUse">
<stop stop-color="#5498FF"/>
<stop offset="0.515625" stop-color="#428EFF"/>
<stop offset="1" stop-color="#297FFF"/>
</linearGradient>
<linearGradient id="paint1_linear" x1="137.452" y1="-59.2221" x2="116.001" y2="89.2381" gradientUnits="userSpaceOnUse">
<stop stop-color="#5498FF"/>
<stop offset="0.515625" stop-color="#428EFF"/>
<stop offset="1" stop-color="#297FFF"/>
</linearGradient>
<linearGradient id="paint2_linear" x1="42.0422" y1="44.5" x2="29.8797" y2="83.5398" gradientUnits="userSpaceOnUse">
<stop stop-color="#5498FF"/>
<stop offset="0.515625" stop-color="#428EFF"/>
<stop offset="1" stop-color="#297FFF"/>
</linearGradient>
</defs>
</svg>
